<?xml version="1.0" encoding="utf-8"?>
<!-- Generator: Adobe Illustrator 19.0.0, SVG Export Plug-In . SVG Version: 6.00 Build 0)  -->
<svg version="1.1" id="Layer_1" xmlns="http://www.w3.org/2000/svg" xmlns:xlink="http://www.w3.org/1999/xlink" x="0px" y="0px"
	 viewBox="0 0 138 138" style="enable-background:new 0 0 138 138;" xml:space="preserve">
<style type="text/css">
	.st0{fill:#E56D67;}
	.st1{fill:#FFFFFF;}
</style>
<g id="XMLID_28_">
	<path id="XMLID_29_" class="st0" d="M36.7,86.1c0,0.8-0.7,1.5-1.5,1.5h-8.6v28.6c0,0.9-0.7,1.7-1.6,1.7c-0.9,0-1.7-0.8-1.7-1.7
		V87.6h-8.6c-0.8,0-1.4-0.6-1.4-1.5c0-0.8,0.7-1.4,1.4-1.4h20.5C36,84.7,36.7,85.4,36.7,86.1z"/>
	<path id="XMLID_31_" class="st0" d="M55.3,98.2v-3.4c0-0.9,0.8-1.7,1.6-1.7c0.9,0,1.7,0.8,1.7,1.7v21.7c0,0.8-0.8,1.7-1.7,1.7
		c-0.8,0-1.6-0.8-1.6-1.7v-4c-1.4,3.4-4.8,5.7-8.8,5.7c-5.3,0-11.7-4.1-11.7-12.6c0-8.4,6.4-12.6,11.7-12.6
		C50.1,92.9,53.7,94.7,55.3,98.2z M55.4,105.5c0-6.8-4.6-9.7-8.6-9.7c-4,0-8.8,3.1-8.8,9.7c0,6.7,4.8,9.8,8.8,9.8
		C50.8,115.2,55.4,112.1,55.4,105.5z"/>
	<path id="XMLID_34_" class="st0" d="M74.6,115.9c0,1.6-2.4,2-4.2,2c-2.3,0-4.4-0.8-4.4-4.7V95.9h-2.3c-0.8,0-1.4-0.5-1.4-1.4
		s0.6-1.4,1.4-1.4H66v-4.3c0-0.9,0.7-1.6,1.6-1.6c0.9,0,1.6,0.7,1.6,1.6v4.3h4c0.8,0,1.4,0.5,1.4,1.4s-0.6,1.4-1.4,1.4h-4v17.2
		c0,1.5,0.7,2.1,1.9,2.1c0.8,0,1.4-0.2,1.9-0.3C73.9,114.6,74.6,115.1,74.6,115.9z"/>
	<path id="XMLID_36_" class="st0" d="M89.2,115.9c0,1.6-2.4,2-4.2,2c-2.3,0-4.4-0.8-4.4-4.7V95.9h-2.3c-0.8,0-1.4-0.5-1.4-1.4
		s0.6-1.4,1.4-1.4h2.3v-4.3c0-0.9,0.7-1.6,1.6-1.6s1.6,0.7,1.6,1.6v4.3h4c0.8,0,1.4,0.5,1.4,1.4s-0.6,1.4-1.4,1.4h-4v17.2
		c0,1.5,0.7,2.1,1.9,2.1c0.8,0,1.4-0.2,1.9-0.3C88.5,114.6,89.2,115.1,89.2,115.9z"/>
	<path id="XMLID_38_" class="st0" d="M95,118c-0.9,0-1.6-0.8-1.6-1.7V85.6c0-0.8,0.7-1.6,1.6-1.6s1.6,0.8,1.6,1.6v30.7
		C96.6,117.2,95.9,118,95,118z"/>
	<path id="XMLID_40_" class="st0" d="M125.2,104.9c0,1.2-0.8,1.8-2.1,1.8h-18.4c0.4,5.8,4.9,8.5,9.2,8.5c2.3,0,4.3-0.7,5.9-2
		c0.6-0.5,1-0.7,1.4-0.7c0.8,0,1.3,0.6,1.3,1.3c0,0.4-0.2,0.8-0.9,1.5c-2,1.8-4.9,2.7-7.8,2.7c-5.9,0-12.4-4-12.4-12.5
		c0-8.4,6.6-12.6,12-12.6C118.7,92.9,125.2,97.1,125.2,104.9z M104.7,104.2H122c-0.4-5.8-4.9-8.4-8.7-8.4
		C109.6,95.7,105.1,98.4,104.7,104.2z"/>
</g>
<g id="XMLID_623_">
	<path id="XMLID_624_" class="st0" d="M96.9,49.2c0-16.5-13.4-29.9-29.9-29.9C50.4,19.2,37,32.6,37,49.2c0,16.2,12.9,29.4,29,29.9
		V61.5h3.5V79C84.8,77.7,96.9,64.9,96.9,49.2z"/>
	<path id="XMLID_626_" class="st1" d="M66,61.5v17.6c0.3,0,0.6,0,0.9,0c0.9,0,1.7,0,2.5-0.1V61.5H66z"/>
</g>
<g id="XMLID_617_">
	<path id="XMLID_45_" class="st1" d="M78.5,54.9c-0.8,0-1.5-0.7-1.5-1.5v-9.7c0-5.1-4.2-9.3-9.3-9.3s-9.3,4.2-9.3,9.3v9.7
		c0,0.8-0.7,1.5-1.5,1.5s-1.5-0.7-1.5-1.5v-9.7c0-6.8,5.5-12.3,12.3-12.3S80,37,80,43.7v9.7C80,54.3,79.4,54.9,78.5,54.9z"/>
</g>
<g id="XMLID_616_">
	<path id="XMLID_44_" class="st1" d="M66.1,53.5c-0.4,0-0.8-0.1-1.1-0.4l-3.1-3.1c-0.6-0.6-0.6-1.5,0-2.1c0.6-0.6,1.5-0.6,2.1,0
		l2.1,2.1l5.4-5.4c0.6-0.6,1.5-0.6,2.1,0c0.6,0.6,0.6,1.5,0,2.1L67.1,53C66.9,53.3,66.5,53.5,66.1,53.5z"/>
</g>
<g id="XMLID_537_">
	<path id="XMLID_43_" class="st1" d="M67.4,62.9c-13.3,0-23.4-4.5-23.4-10.5c0-2.9,2.4-5.6,6.7-7.5c0.2-0.1,0.3-0.1,0.5-0.2
		c0.8-0.3,1.6,0,2,0.8c0.3,0.8,0,1.6-0.8,2L52,47.7c-3.1,1.4-4.9,3.1-4.9,4.7c0,3.5,8.4,7.5,20.4,7.5c12,0,20.4-4,20.4-7.5
		c0-1.6-1.8-3.3-4.9-4.7c-0.8-0.3-1.1-1.2-0.8-2c0.3-0.8,1.2-1.1,2-0.8c4.3,1.9,6.7,4.6,6.7,7.5C90.8,58.4,80.8,62.9,67.4,62.9z"/>
</g>
</svg>
